<?xml version="1.0" standalone="no"?>
<!DOCTYPE svg PUBLIC "-//W3C//DTD SVG 20010904//EN"
 "http://www.w3.org/TR/2001/REC-SVG-20010904/DTD/svg10.dtd">
<svg version="1.0" xmlns="http://www.w3.org/2000/svg"
 width="593.000000pt" height="103.000000pt" viewBox="0 0 593.000000 103.000000"
 preserveAspectRatio="xMidYMid meet">

<g transform="translate(0.000000,103.000000) scale(0.100000,-0.100000)"
fill="#000000" stroke="none">
<path d="M2190 992 c0 -4 8 -12 19 -19 23 -15 17 -59 -9 -66 -21 -6 -275 18
-340 32 -25 5 -93 13 -151 16 -88 6 -111 5 -137 -9 -35 -18 -62 -62 -62 -100
0 -30 20 -76 32 -76 5 0 6 -5 2 -11 -4 -7 -44 -10 -113 -8 -166 4 -231 0 -231
-12 0 -6 9 -9 19 -6 10 2 23 2 27 -2 5 -3 8 -66 6 -138 l-3 -133 -35 0 c-26 0
-37 5 -44 23 -17 40 -38 58 -80 71 l-43 12 35 17 c96 45 85 154 -17 177 -64
15 -175 -9 -175 -38 0 -12 3 -13 12 -4 7 7 29 12 50 12 95 0 94 -139 -2 -155
-48 -8 -53 -25 -7 -25 31 0 73 -21 89 -44 12 -17 9 -125 -4 -149 -6 -12 -18
-27 -27 -34 -23 -18 -116 -16 -131 2 -16 20 -11 30 30 57 29 20 35 30 35 58 0
28 -5 37 -28 48 -38 19 -68 9 -89 -29 -24 -41 -23 -76 4 -115 26 -39 76 -57
155 -58 107 -1 203 57 203 124 0 24 4 28 35 32 l35 4 0 -103 0 -103 68 0 67 0
-3 247 -3 248 77 -2 76 -2 1 -243 2 -243 61 -3 c59 -3 62 -2 66 23 10 48 1
197 -12 205 -9 6 -9 9 0 12 8 2 12 42 13 128 l2 124 49 -3 c33 -2 47 1 44 9
-2 8 -34 13 -86 15 -102 3 -124 18 -121 80 2 36 5 41 23 39 72 -10 155 -11
149 -1 -3 5 -1 7 5 3 5 -3 12 -3 15 1 2 5 2 2 1 -4 -2 -7 2 -13 9 -13 7 0 41
-5 77 -10 295 -42 378 -42 412 2 24 32 23 89 -3 122 -19 24 -49 36 -49 18z
m-565 -60 c-3 -3 -11 0 -18 7 -9 10 -8 11 6 5 10 -3 15 -9 12 -12z m51 -8 c-4
-9 -1 -24 6 -33 6 -9 0 -5 -14 9 -27 26 -27 40 -1 40 10 0 13 -6 9 -16z m88 1
c3 -8 1 -15 -4 -15 -6 0 -10 7 -10 15 0 8 2 15 4 15 2 0 6 -7 10 -15z m-192
-17 c-7 -7 -12 -8 -12 -2 0 14 12 26 19 19 2 -3 -1 -11 -7 -17z m243 12 c-3
-5 -14 -10 -23 -10 -15 0 -15 2 -2 10 20 13 33 13 25 0z m-198 -16 c-3 -3 -12
-4 -19 -1 -8 3 -5 6 6 6 11 1 17 -2 13 -5z m233 -4 c0 -5 -2 -10 -4 -10 -3 0
-8 5 -11 10 -3 6 -1 10 4 10 6 0 11 -4 11 -10z m-60 -20 c0 -5 -2 -10 -4 -10
-3 0 -8 5 -11 10 -3 6 -1 10 4 10 6 0 11 -4 11 -10z m253 -5 c4 -8 1 -17 -5
-21 -7 -4 -8 -3 -4 4 4 7 2 12 -4 12 -6 0 -8 5 -5 10 8 14 12 13 18 -5z m68 6
c-8 -5 -20 -7 -28 -4 -21 8 -15 13 15 13 20 0 23 -3 13 -9z m86 3 c-3 -3 -12
-4 -19 -1 -8 3 -5 6 6 6 11 1 17 -2 13 -5z m-92 -34 c-3 -5 -14 -10 -23 -10
-15 0 -15 2 -2 10 20 13 33 13 25 0z m-790 -138 c-8 -8 -25 10 -19 20 4 6 9 5
15 -3 4 -7 6 -15 4 -17z m45 -12 c0 -5 -2 -10 -4 -10 -3 0 -8 5 -11 10 -3 6
-1 10 4 10 6 0 11 -4 11 -10z m-220 -21 c0 -6 -4 -7 -10 -4 -5 3 -10 11 -10
16 0 6 5 7 10 4 6 -3 10 -11 10 -16z m430 -11 c0 -5 -4 -8 -10 -8 -5 0 -10 10
-10 23 0 18 2 19 10 7 5 -8 10 -18 10 -22z m-490 -8 c0 -5 -4 -10 -10 -10 -5
0 -10 5 -10 10 0 6 5 10 10 10 6 0 10 -4 10 -10z m536 -29 c-12 -18 -21 -12
-21 14 0 20 2 22 14 11 7 -8 10 -19 7 -25z m-491 19 c3 -5 1 -10 -4 -10 -6 0
-11 5 -11 10 0 6 2 10 4 10 3 0 8 -4 11 -10z m235 -10 c0 -5 -5 -10 -11 -10
-5 0 -7 5 -4 10 3 6 8 10 11 10 2 0 4 -4 4 -10z m284 -25 c-4 -8 -8 -15 -10
-15 -2 0 -4 7 -4 15 0 8 4 15 10 15 5 0 7 -7 4 -15z m-304 -3 c0 -4 -15 -8
-32 -9 -30 -1 -31 -1 -8 7 34 11 40 11 40 2z m30 -6 c0 -3 -4 -8 -10 -11 -5
-3 -10 -1 -10 4 0 6 5 11 10 11 6 0 10 -2 10 -4z m241 -16 c10 -6 19 -16 19
-23 0 -8 -3 -9 -8 -1 -4 6 -16 16 -27 22 -25 14 -11 16 16 2z m-574 -52 c-3
-8 -6 -5 -6 6 -1 11 2 17 5 13 3 -3 4 -12 1 -19z m593 3 c0 -5 -7 -11 -15 -15
-15 -5 -20 5 -8 17 9 10 23 9 23 -2z m-555 -71 c3 -5 1 -10 -4 -10 -6 0 -11 5
-11 10 0 6 2 10 4 10 3 0 8 -4 11 -10z m232 -12 c-3 -8 -6 -5 -6 6 -1 11 2 17
5 13 3 -3 4 -12 1 -19z m43 -2 c0 -3 -4 -8 -10 -11 -5 -3 -10 -1 -10 4 0 6 5
11 10 11 6 0 10 -2 10 -4z m-506 -22 c3 -8 2 -12 -4 -9 -6 3 -10 10 -10 16 0
14 7 11 14 -7z m36 1 c6 -8 10 -20 8 -26 -2 -6 -12 0 -21 15 -18 27 -8 37 13
11z m215 5 c-3 -5 -11 -10 -16 -10 -6 0 -7 5 -4 10 3 6 11 10 16 10 6 0 7 -4
4 -10z m531 -15 c18 -14 17 -15 -7 -6 -15 5 -30 7 -33 4 -3 -4 -6 -1 -6 5 0
17 22 15 46 -3z m-296 -5 c0 -5 -5 -10 -11 -10 -5 0 -7 5 -4 10 3 6 8 10 11
10 2 0 4 -4 4 -10z m-480 -41 c0 -5 -5 -9 -12 -9 -6 0 -8 3 -5 7 4 3 1 13 -6
22 -11 14 -10 14 6 2 9 -7 17 -17 17 -22z m257 25 c-3 -3 -12 -4 -19 -1 -8 3
-5 6 6 6 11 1 17 -2 13 -5z m523 -24 c0 -5 -5 -12 -11 -16 -14 -8 -33 11 -25
25 7 11 36 4 36 -9z m-310 -20 c0 -5 -4 -10 -10 -10 -5 0 -10 5 -10 10 0 6 5
10 10 10 6 0 10 -4 10 -10z m44 -26 c3 -8 2 -12 -4 -9 -6 3 -10 10 -10 16 0
14 7 11 14 -7z m273 -6 c-3 -8 -6 -5 -6 6 -1 11 2 17 5 13 3 -3 4 -12 1 -19z
m-273 -33 c4 -10 -1 -15 -16 -15 -17 0 -18 2 -8 15 7 8 14 15 15 15 2 0 5 -7
9 -15z m270 -14 c4 -5 -3 -7 -14 -4 -23 6 -26 13 -6 13 8 0 17 -4 20 -9z"/>
<path d="M3890 990 c0 -6 7 -13 15 -16 9 -4 15 -19 15 -35 0 -32 -1 -32 -95
-29 -51 1 -209 22 -304 40 -103 19 -227 7 -225 -22 1 -9 -4 -14 -10 -12 -15 6
-36 -38 -36 -75 0 -16 9 -40 20 -54 11 -14 20 -27 20 -30 0 -3 -277 -5 -615
-4 -364 0 -615 -3 -615 -9 0 -5 8 -9 19 -10 33 -2 36 -11 33 -103 -3 -87 -4
-90 -25 -87 -12 3 -32 5 -43 5 -18 1 -23 9 -28 53 -13 92 -68 158 -134 158
-35 0 -82 -22 -94 -44 -18 -31 -20 -58 -6 -54 7 3 14 14 16 26 3 18 10 22 38
22 28 0 34 -4 39 -25 3 -14 8 -37 11 -52 3 -15 11 -31 17 -35 9 -6 9 -8 0 -8
-7 0 -13 -11 -13 -25 0 -20 -5 -25 -25 -25 -31 0 -95 -55 -95 -82 0 -12 5 -37
11 -58 12 -40 47 -60 108 -60 36 0 108 60 114 95 16 94 15 91 64 90 l45 -1 -1
-142 -2 -142 71 0 71 0 -1 138 c-1 75 -1 187 -1 247 l1 110 92 -3 c101 -4 134
-17 144 -57 3 -13 14 -27 24 -30 10 -3 24 -12 30 -20 11 -13 9 -13 -16 0 -32
16 -33 16 -39 -14 -5 -25 -32 -66 -45 -67 -6 -1 -28 -2 -50 -3 l-40 -1 0 -44
c0 -25 5 -48 10 -51 6 -3 10 -1 10 4 0 6 5 11 11 11 8 0 8 -5 -1 -15 -18 -22
9 -57 67 -86 37 -18 64 -24 119 -24 62 0 75 3 107 28 l37 28 0 -75 0 -76 70 0
71 0 -2 246 -3 246 73 0 73 0 -1 -246 -1 -247 67 3 68 3 5 243 c3 133 8 242
13 242 4 0 36 0 70 0 l64 0 1 -222 c1 -123 2 -233 2 -245 0 -21 4 -23 64 -23
l65 0 0 242 c0 134 2 244 6 246 3 1 94 2 203 2 l199 0 1 -115 c0 -63 -4 -117
-8 -120 -9 -5 -50 46 -50 62 0 23 -81 91 -115 97 -40 8 -108 -18 -139 -53 -20
-22 -14 -43 6 -23 7 7 22 12 35 12 26 0 73 -20 73 -31 0 -4 13 -27 28 -51 34
-53 54 -98 43 -98 -4 0 -21 -12 -36 -26 -15 -14 -45 -37 -66 -51 -21 -14 -36
-29 -33 -34 7 -11 13 -8 90 53 34 26 64 48 68 48 6 0 49 36 82 68 7 6 15 12
18 12 3 0 4 -53 3 -117 l-2 -118 68 -3 67 -3 0 248 0 248 192 -2 c106 -2 200
-3 208 -3 10 0 11 -3 3 -8 -8 -5 -13 -59 -15 -170 -3 -158 -4 -164 -27 -181
-30 -23 -66 -16 -92 18 -18 23 -20 37 -17 109 3 74 6 86 27 103 13 10 37 19
55 19 29 1 30 1 12 15 -49 37 -160 20 -196 -29 -48 -67 -56 -146 -21 -213 31
-61 67 -83 138 -83 53 0 63 3 91 31 l32 31 0 -66 0 -66 68 0 67 0 0 170 c0
157 1 170 20 184 28 21 69 20 89 -3 22 -24 36 -124 25 -167 -14 -48 -44 -77
-80 -76 -31 1 -31 0 -12 -17 24 -23 113 -27 151 -7 30 15 65 59 76 93 14 44 8
120 -13 160 -41 81 -165 112 -229 58 l-30 -25 0 60 0 60 194 0 194 0 0 -245 0
-245 65 0 c61 0 65 2 65 23 1 12 1 122 1 245 l0 222 44 0 c24 0 47 5 50 10 4
6 -13 10 -44 10 -49 0 -51 1 -51 28 0 39 -46 106 -89 130 -60 34 -119 44 -252
44 -135 0 -226 -18 -263 -50 -26 -23 -44 -69 -38 -98 6 -34 22 -19 22 21 0 44
42 79 110 94 62 13 210 14 265 1 51 -12 105 -67 105 -109 0 -16 5 -33 10 -36
6 -4 8 -10 6 -14 -3 -4 -346 -7 -763 -7 -723 1 -759 2 -785 20 -30 20 -36 51
-15 79 16 22 86 23 207 3 52 -9 152 -23 222 -31 137 -16 177 -10 210 29 26 32
23 92 -7 121 -25 26 -45 32 -45 15z m-379 -68 c-7 -2 -18 1 -23 6 -8 8 -4 9
13 5 13 -4 18 -8 10 -11z m-47 -17 c-7 -17 -44 -21 -44 -4 0 5 4 8 8 5 4 -2
14 -1 22 5 20 12 20 11 14 -6z m-124 -5 c0 -5 -2 -10 -4 -10 -3 0 -8 5 -11 10
-3 6 -1 10 4 10 6 0 11 -4 11 -10z m280 0 c0 -14 28 -12 33 3 2 6 8 9 12 5 11
-10 -4 -28 -24 -28 -10 0 -24 7 -31 15 -9 10 -9 15 -1 15 6 0 11 -4 11 -10z
m-125 -19 c-3 -6 -11 -11 -16 -11 -5 0 -4 6 3 14 14 16 24 13 13 -3z m225 10
c0 -5 -9 -7 -20 -4 -11 3 -20 7 -20 9 0 2 9 4 20 4 11 0 20 -4 20 -9z m175
-21 c8 0 17 -4 20 -10 4 -6 -2 -7 -16 -1 -13 4 -24 13 -25 20 -1 6 0 7 3 1 2
-5 11 -10 18 -10z m-55 0 c0 -5 -2 -10 -4 -10 -3 0 -8 5 -11 10 -3 6 -1 10 4
10 6 0 11 -4 11 -10z m-40 -10 c-8 -5 -19 -10 -25 -10 -5 0 -3 5 5 10 8 5 20
10 25 10 6 0 3 -5 -5 -10z m-1610 -130 c0 -5 -4 -10 -10 -10 -5 0 -10 5 -10
10 0 6 5 10 10 10 6 0 10 -4 10 -10z m518 -159 l-3 -164 -28 -21 c-31 -23 -94
-26 -131 -6 -12 6 -30 24 -39 40 -20 34 -23 104 -4 97 18 -7 77 20 98 45 13
14 19 37 19 66 0 36 -5 49 -30 72 -16 15 -30 30 -30 32 0 1 34 3 75 3 l75 0
-2 -164z m100 158 c-10 -5 -18 -19 -18 -29 0 -11 -2 -20 -4 -20 -2 0 -12 -3
-21 -6 -15 -6 -16 -4 -3 17 21 37 32 48 48 48 12 0 11 -2 -2 -10z m1088 -18
c-13 -15 -14 -20 -4 -24 8 -4 7 -6 -4 -6 -10 -1 -18 -5 -18 -11 0 -5 -8 -10
-17 -10 -17 1 -17 1 0 11 9 5 17 18 17 29 0 10 6 21 13 23 25 11 30 6 13 -12z
m503 5 c9 -11 7 -15 -8 -19 -14 -3 -17 0 -14 14 6 23 7 23 22 5z m-1349 0 c0
-2 -9 -6 -20 -9 -11 -3 -20 -1 -20 4 0 5 9 9 20 9 11 0 20 -2 20 -4z m-836
-21 c-4 -8 -10 -15 -15 -15 -4 0 -6 7 -3 15 4 8 10 15 15 15 4 0 6 -7 3 -15z
m326 11 c0 -2 -7 -7 -16 -10 -8 -3 -12 -2 -9 4 6 10 25 14 25 6z m-610 -16 c0
-5 -4 -10 -10 -10 -5 0 -10 5 -10 10 0 6 5 10 10 10 6 0 10 -4 10 -10z m1134
-6 c3 -8 2 -12 -4 -9 -5 3 -19 1 -30 -5 -11 -6 -20 -7 -20 -3 0 5 10 13 23 19
12 7 23 12 23 13 1 0 5 -6 8 -15z m1396 0 c0 -2 -9 -4 -20 -4 -11 0 -20 4 -20
9 0 5 9 7 20 4 11 -3 20 -7 20 -9z m-1640 -14 c0 -5 -5 -10 -11 -10 -5 0 -7 5
-4 10 3 6 8 10 11 10 2 0 4 -4 4 -10z m2124 -4 c-6 -16 -44 -29 -44 -15 0 5 7
9 15 9 8 0 15 5 15 10 0 6 4 10 10 10 5 0 7 -6 4 -14z m-1848 -35 c-6 -2 -18
-9 -26 -15 -8 -6 -6 -1 4 12 11 12 16 22 12 22 -4 0 -4 5 0 12 5 8 10 6 14 -8
4 -11 3 -21 -4 -23z m1289 9 c1 -15 -1 -17 -11 -9 -7 6 -10 17 -7 25 7 18 16
10 18 -16z m75 20 c0 -5 -5 -10 -11 -10 -5 0 -7 5 -4 10 3 6 8 10 11 10 2 0 4
-4 4 -10z m-2506 -15 c8 -8 19 -15 24 -15 7 0 6 -13 -1 -35 -10 -34 -29 -45
-42 -25 -3 6 1 10 9 10 8 0 18 5 21 11 9 14 -24 49 -47 49 -11 0 -16 5 -13 10
9 15 31 12 49 -5z m626 -5 c0 -5 -5 -10 -11 -10 -5 0 -7 5 -4 10 3 6 8 10 11
10 2 0 4 -4 4 -10z m1299 -12 c0 -13 -3 -17 -6 -10 -2 6 -11 12 -19 12 -9 0
-12 -5 -8 -12 4 -7 3 -8 -4 -4 -19 11 -14 24 11 29 12 2 23 5 25 6 1 0 2 -9 1
-21z m718 16 c-3 -3 -12 -4 -19 -1 -8 3 -5 6 6 6 11 1 17 -2 13 -5z m-2397
-25 c0 -5 -4 -9 -10 -9 -5 0 -10 7 -10 16 0 8 5 12 10 9 6 -3 10 -10 10 -16z
m630 17 c0 -3 -4 -8 -10 -11 -5 -3 -10 -1 -10 4 0 6 5 11 10 11 6 0 10 -2 10
-4z m1598 -20 c3 -11 -1 -17 -9 -14 -7 2 -13 12 -15 22 -3 23 20 15 24 -8z
m129 18 c-3 -3 -12 -4 -19 -1 -8 3 -5 6 6 6 11 1 17 -2 13 -5z m-1807 -14 c0
-5 12 -10 27 -10 17 0 24 -3 17 -10 -12 -12 -51 -2 -58 16 -3 8 -1 14 4 14 6
0 10 -4 10 -10z m595 0 c-3 -5 -14 -10 -23 -9 -14 0 -13 2 3 9 27 11 27 11 20
0z m252 -7 c3 -7 -4 -9 -16 -6 -12 3 -18 9 -15 15 7 11 26 6 31 -9z m86 3 c8
5 9 4 2 -4 -11 -13 -55 -5 -55 10 0 5 9 4 20 -2 11 -6 26 -8 33 -4z m237 4 c0
-5 -2 -10 -4 -10 -3 0 -8 5 -11 10 -3 6 -1 10 4 10 6 0 11 -4 11 -10z m-816
-40 c-6 -6 -15 -6 -24 0 -13 9 -13 11 0 20 18 11 39 -5 24 -20z m1076 10 c0
-5 -2 -10 -4 -10 -3 0 -8 5 -11 10 -3 6 -1 10 4 10 6 0 11 -4 11 -10z m720 0
c0 -5 -7 -10 -16 -10 -8 0 -12 5 -9 10 3 6 10 10 16 10 5 0 9 -4 9 -10z
m-2087 -17 c4 -7 3 -21 -3 -30 -10 -16 -10 -16 -8 2 2 14 -4 21 -19 23 -13 2
-23 7 -23 11 0 12 44 7 53 -6z m512 7 c-3 -5 -1 -10 5 -10 6 0 8 -5 5 -10 -4
-6 -11 -8 -16 -5 -12 8 -11 35 2 35 5 0 7 -4 4 -10z m387 -20 c12 0 19 -3 15
-6 -3 -4 -22 -3 -41 0 -25 5 -33 11 -30 21 5 13 8 12 21 0 8 -8 24 -15 35 -15z
m428 16 c0 -8 -4 -17 -9 -21 -6 -3 -9 4 -8 15 1 23 17 28 17 6z m245 4 c3 -5
1 -10 -4 -10 -6 0 -11 5 -11 10 0 6 2 10 4 10 3 0 8 -4 11 -10z m-1855 -13 c0
-8 -3 -17 -7 -20 -9 -9 -34 13 -27 24 8 14 34 11 34 -4z m40 3 c0 -5 -5 -10
-11 -10 -5 0 -7 5 -4 10 3 6 8 10 11 10 2 0 4 -4 4 -10z m1860 0 c0 -5 -2 -10
-4 -10 -3 0 -8 5 -11 10 -3 6 -1 10 4 10 6 0 11 -4 11 -10z m-2510 -19 c0 -6
-4 -13 -10 -16 -5 -3 -10 1 -10 9 0 9 5 16 10 16 6 0 10 -4 10 -9z m850 -6 c0
-8 -2 -15 -4 -15 -2 0 -6 7 -10 15 -3 8 -1 15 4 15 6 0 10 -7 10 -15z m597 0
c0 -8 -4 -12 -9 -9 -5 3 -6 10 -3 15 9 13 12 11 12 -6z m809 3 c5 -7 3 -8 -6
-3 -9 6 -10 2 -5 -15 6 -20 5 -21 -8 -9 -11 10 -12 18 -5 27 13 15 15 15 24 0z
m-2223 -22 c-3 -14 -11 -27 -19 -30 -12 -5 -12 0 1 24 19 36 24 38 18 6z
m2992 0 c7 3 16 1 20 -5 4 -7 0 -8 -11 -4 -15 6 -15 4 1 -23 l17 -29 -26 28
c-14 16 -31 25 -37 22 -6 -4 -5 3 3 14 10 16 14 18 16 7 2 -8 9 -13 17 -10z
m-1601 -3 c-7 -2 -10 -13 -7 -23 4 -15 0 -20 -13 -19 -12 0 -14 3 -6 6 10 4
10 9 -2 27 -14 22 -13 23 12 18 15 -3 22 -7 16 -9z m511 7 c3 -5 1 -10 -4 -10
-6 0 -11 5 -11 10 0 6 2 10 4 10 3 0 8 -4 11 -10z m260 0 c-3 -5 -1 -10 5 -10
7 0 4 -7 -5 -16 -9 -9 -17 -15 -19 -13 -5 6 12 49 19 49 4 0 3 -4 0 -10z
m-346 -16 c2 -2 -10 -4 -27 -4 -17 0 -34 4 -37 10 -5 9 53 3 64 -6z m-979 -4
c3 -1 -8 -6 -24 -11 -32 -9 -42 -6 -32 9 4 7 37 9 56 2z m1937 -6 c-3 -3 -12
-4 -19 -1 -8 3 -5 6 6 6 11 1 17 -2 13 -5z m181 -37 c15 -16 14 -17 -1 -11
-21 8 -39 38 -29 48 3 4 8 1 11 -6 2 -7 11 -21 19 -31z m-2513 23 c3 -5 1 -10
-4 -10 -6 0 -11 5 -11 10 0 6 2 10 4 10 3 0 8 -4 11 -10z m71 -46 c-3 -7 0
-14 7 -15 9 0 9 -2 0 -6 -7 -2 -20 3 -29 11 -14 15 -14 16 1 16 9 0 14 4 10
10 -3 5 -12 7 -20 3 -17 -6 -18 -2 -9 22 6 14 9 14 26 -5 11 -12 17 -28 14
-36z m1255 38 c-8 -3 -7 -8 5 -16 18 -13 12 -36 -9 -36 -7 0 -6 4 3 10 13 9
13 12 -2 21 -24 13 -24 41 -1 32 11 -5 13 -8 4 -11z m453 -3 c-6 -11 -24 -2
-24 11 0 5 7 7 15 4 8 -4 12 -10 9 -15z m-1958 -2 c4 -7 4 -9 0 -5 -5 4 -19 3
-32 -2 -21 -8 -32 -2 -19 11 9 10 45 7 51 -4z m584 3 c0 -5 -7 -10 -15 -10 -8
0 -15 -5 -15 -11 0 -6 -7 -9 -15 -5 -10 3 -15 -1 -16 -12 0 -14 -2 -13 -8 3
-7 17 -2 22 28 31 20 7 37 12 39 13 1 1 2 -3 2 -9z m580 0 c0 -5 -2 -10 -4
-10 -3 0 -8 5 -11 10 -3 6 -1 10 4 10 6 0 11 -4 11 -10z m478 -4 c-7 -8 -15
-12 -17 -11 -5 6 10 25 20 25 5 0 4 -6 -3 -14z m219 -18 c-3 -7 -5 -2 -5 12 0
14 2 19 5 13 2 -7 2 -19 0 -25z m-2101 11 c4 -8 0 -9 -15 -4 -14 4 -21 2 -21
-6 0 -7 -3 -10 -6 -6 -9 9 5 27 21 27 8 0 17 -5 21 -11z m1321 -11 c-3 -8 -6
-5 -6 6 -1 11 2 17 5 13 3 -3 4 -12 1 -19z m463 12 c0 -5 -2 -10 -4 -10 -3 0
-8 5 -11 10 -3 6 -1 10 4 10 6 0 11 -4 11 -10z m366 -28 c-4 -3 -14 2 -24 12
-16 18 -16 18 6 6 13 -6 21 -14 18 -18z m314 18 c0 -5 -5 -10 -11 -10 -5 0 -7
5 -4 10 3 6 8 10 11 10 2 0 4 -4 4 -10z m-1050 -10 c0 -5 -4 -10 -10 -10 -5 0
-10 5 -10 10 0 6 5 10 10 10 6 0 10 -4 10 -10z m1315 -1 c11 -17 -1 -21 -15
-4 -8 9 -8 15 -2 15 6 0 14 -5 17 -11z m250 -8 c-3 -6 -11 -11 -17 -11 -6 0
-6 6 2 15 14 17 26 13 15 -4z m-3016 -7 c2 -2 2 -7 -2 -10 -3 -3 -16 2 -29 11
l-23 17 25 -7 c14 -4 27 -9 29 -11z m261 12 c0 -2 -7 -6 -15 -10 -8 -3 -15 -1
-15 4 0 6 7 10 15 10 8 0 15 -2 15 -4z m-226 -21 c-4 -8 -10 -15 -15 -15 -4 0
-6 7 -3 15 4 8 10 15 15 15 4 0 6 -7 3 -15z m1382 -22 c-11 -11 -17 4 -9 23 7
18 8 18 11 1 2 -10 1 -21 -2 -24z m804 21 c0 -8 -5 -12 -10 -9 -6 4 -8 11 -5
16 9 14 15 11 15 -7z m500 -4 c10 0 22 -5 26 -12 5 -8 2 -9 -10 -5 -10 4 -24
7 -32 7 -8 0 -14 8 -13 18 0 10 3 12 6 5 2 -7 13 -13 23 -13z m227 -2 c-3 -8
-6 -5 -6 6 -1 11 2 17 5 13 3 -3 4 -12 1 -19z m-2727 -8 c0 -10 -10 -25 -22
-31 -22 -12 -22 -11 -5 8 9 11 17 25 17 31 0 7 2 12 5 12 3 0 5 -9 5 -20z m56
5 c-3 -8 -1 -15 5 -15 6 0 7 -5 3 -11 -4 -7 -12 -6 -23 5 -14 15 -14 18 -1 26
21 13 23 12 16 -5z m821 -2 c2 -6 -3 -13 -12 -16 -10 -5 -15 0 -15 14 0 21 21
22 27 2z m1078 7 c3 -5 1 -10 -4 -10 -6 0 -11 5 -11 10 0 6 2 10 4 10 3 0 8
-4 11 -10z m-1654 -26 c8 -10 8 -14 0 -14 -6 0 -11 5 -11 11 0 6 -6 9 -14 6
-8 -3 -19 0 -25 7 -9 10 -6 12 14 9 13 -3 30 -11 36 -19z m299 5 c-7 -11 -14
-18 -17 -15 -3 3 0 12 7 21 18 21 23 19 10 -6z m570 12 c0 -6 -4 -13 -10 -16
-5 -3 -10 1 -10 9 0 9 5 16 10 16 6 0 10 -4 10 -9z m1100 -1 c0 -5 -7 -7 -15
-4 -8 4 -15 8 -15 10 0 2 7 4 15 4 8 0 15 -4 15 -10z m533 -7 c-3 -7 -6 -13
-8 -13 -2 0 -5 6 -8 13 -3 8 1 14 8 14 7 0 11 -6 8 -14z m-3028 -13 c3 -5 2
-10 -4 -10 -5 0 -13 5 -16 10 -3 6 -2 10 4 10 5 0 13 -4 16 -10z m575 6 c0 -3
-4 -8 -10 -11 -5 -3 -10 -1 -10 4 0 6 5 11 10 11 6 0 10 -2 10 -4z m1370 -30
c-14 -14 -24 0 -16 21 6 15 8 15 16 3 6 -9 5 -19 0 -24z m790 0 c20 -25 2 -18
-28 10 -21 20 -22 24 -6 16 11 -6 26 -18 34 -26z m-1350 9 c0 -12 -19 -12 -23
0 -4 9 -1 12 9 8 7 -3 14 -7 14 -8z m847 0 c0 -8 -4 -15 -9 -15 -4 0 -8 5 -8
11 0 6 -7 8 -16 5 -8 -3 -12 -2 -9 4 10 16 42 12 42 -5z m-1951 -31 c0 -13 -5
-24 -12 -24 -7 0 -10 8 -7 20 3 11 0 20 -6 20 -6 0 -11 4 -11 9 0 5 8 7 18 4
11 -2 18 -14 18 -29z m821 11 c0 -18 -19 -15 -25 3 -2 7 3 12 11 12 7 0 14 -7
14 -15z m315 -19 c12 0 14 -4 7 -12 -7 -8 -4 -17 8 -29 16 -17 16 -17 -4 -11
-13 4 -27 1 -37 -9 -9 -9 -16 -11 -16 -5 0 6 7 13 15 16 22 9 18 39 -7 53 -17
9 -18 10 -3 5 11 -4 28 -7 37 -8z m1054 -3 c-4 -9 -1 -20 6 -25 8 -5 0 -7 -22
-7 -19 1 -28 3 -19 6 10 2 19 13 22 24 3 10 8 19 12 19 4 0 4 -8 1 -17z
m-1296 -3 c0 -5 -4 -10 -10 -10 -5 0 -10 5 -10 10 0 6 5 10 10 10 6 0 10 -4
10 -10z m783 -7 c-4 -9 -10 -10 -24 -2 -25 13 -24 17 5 15 14 0 22 -6 19 -13z
m342 7 c8 -13 -5 -13 -25 0 -13 8 -13 10 2 10 9 0 20 -4 23 -10z m-1452 -10
c8 0 8 -3 0 -11 -9 -9 -16 -7 -30 7 -17 17 -17 18 0 11 10 -4 24 -7 30 -7z
m254 4 c-3 -3 -12 -4 -19 -1 -8 3 -5 6 6 6 11 1 17 -2 13 -5z m43 2 c0 -3 -4
-8 -10 -11 -5 -3 -10 -1 -10 4 0 6 5 11 10 11 6 0 10 -2 10 -4z m1897 -21 c0
-8 -4 -12 -9 -9 -5 3 -6 10 -3 15 9 13 12 11 12 -6z m-2837 -15 c0 -5 -2 -10
-4 -10 -3 0 -8 5 -11 10 -3 6 -1 10 4 10 6 0 11 -4 11 -10z m975 0 c-3 -5 -15
-10 -26 -10 -10 0 -19 5 -19 10 0 6 12 10 26 10 14 0 23 -4 19 -10z m798 3
c-7 -2 -21 -2 -30 0 -10 3 -4 5 12 5 17 0 24 -2 18 -5z m-53 -18 c0 -12 -19
-12 -23 0 -4 9 -1 12 9 8 7 -3 14 -7 14 -8z m-1685 -5 c3 -5 1 -10 -4 -10 -6
0 -11 5 -11 10 0 6 2 10 4 10 3 0 8 -4 11 -10z m2251 1 c-5 -8 -56 -3 -56 5 0
2 14 4 31 4 16 0 28 -4 25 -9z m-1653 -8 c-7 -2 -19 -2 -25 0 -7 3 -2 5 12 5
14 0 19 -2 13 -5z"/>
<path d="M3030 930 c-13 -8 -12 -11 5 -25 20 -16 20 -16 -1 -6 -39 19 -47 -20
-13 -63 24 -31 48 -33 79 -8 30 24 29 66 -1 92 -27 21 -46 25 -69 10z m55 -21
c11 -17 -1 -21 -15 -4 -8 9 -8 15 -2 15 6 0 14 -5 17 -11z m-45 -39 c0 -5 -2
-10 -4 -10 -3 0 -8 5 -11 10 -3 6 -1 10 4 10 6 0 11 -4 11 -10z m40 0 c13 -8
13 -12 -3 -27 -17 -17 -18 -17 -11 1 4 11 2 21 -7 27 -8 5 -9 9 -4 9 6 0 17
-5 25 -10z"/>
</g>
</svg>
